%TF.GenerationSoftware,KiCad,Pcbnew,7.0.8*%
%TF.CreationDate,2023-10-10T13:31:09-07:00*%
%TF.ProjectId,Lab2_555Timer,4c616232-5f35-4353-9554-696d65722e6b,rev?*%
%TF.SameCoordinates,Original*%
%TF.FileFunction,Copper,L1,Top*%
%TF.FilePolarity,Positive*%
%FSLAX46Y46*%
G04 Gerber Fmt 4.6, Leading zero omitted, Abs format (unit mm)*
G04 Created by KiCad (PCBNEW 7.0.8) date 2023-10-10 13:31:09*
%MOMM*%
%LPD*%
G01*
G04 APERTURE LIST*
G04 Aperture macros list*
%AMRoundRect*
0 Rectangle with rounded corners*
0 $1 Rounding radius*
0 $2 $3 $4 $5 $6 $7 $8 $9 X,Y pos of 4 corners*
0 Add a 4 corners polygon primitive as box body*
4,1,4,$2,$3,$4,$5,$6,$7,$8,$9,$2,$3,0*
0 Add four circle primitives for the rounded corners*
1,1,$1+$1,$2,$3*
1,1,$1+$1,$4,$5*
1,1,$1+$1,$6,$7*
1,1,$1+$1,$8,$9*
0 Add four rect primitives between the rounded corners*
20,1,$1+$1,$2,$3,$4,$5,0*
20,1,$1+$1,$4,$5,$6,$7,0*
20,1,$1+$1,$6,$7,$8,$9,0*
20,1,$1+$1,$8,$9,$2,$3,0*%
G04 Aperture macros list end*
%TA.AperFunction,SMDPad,CuDef*%
%ADD10RoundRect,0.250001X0.624999X-0.462499X0.624999X0.462499X-0.624999X0.462499X-0.624999X-0.462499X0*%
%TD*%
%TA.AperFunction,SMDPad,CuDef*%
%ADD11RoundRect,0.250000X-0.475000X0.337500X-0.475000X-0.337500X0.475000X-0.337500X0.475000X0.337500X0*%
%TD*%
%TA.AperFunction,SMDPad,CuDef*%
%ADD12RoundRect,0.250000X-0.450000X0.350000X-0.450000X-0.350000X0.450000X-0.350000X0.450000X0.350000X0*%
%TD*%
%TA.AperFunction,SMDPad,CuDef*%
%ADD13RoundRect,0.250001X0.462499X0.624999X-0.462499X0.624999X-0.462499X-0.624999X0.462499X-0.624999X0*%
%TD*%
%TA.AperFunction,SMDPad,CuDef*%
%ADD14RoundRect,0.250000X-0.425000X0.537500X-0.425000X-0.537500X0.425000X-0.537500X0.425000X0.537500X0*%
%TD*%
%TA.AperFunction,SMDPad,CuDef*%
%ADD15RoundRect,0.150000X-0.825000X-0.150000X0.825000X-0.150000X0.825000X0.150000X-0.825000X0.150000X0*%
%TD*%
%TA.AperFunction,SMDPad,CuDef*%
%ADD16R,2.290000X3.000000*%
%TD*%
%TA.AperFunction,ComponentPad*%
%ADD17RoundRect,0.250000X-0.600000X-0.750000X0.600000X-0.750000X0.600000X0.750000X-0.600000X0.750000X0*%
%TD*%
%TA.AperFunction,ComponentPad*%
%ADD18O,1.700000X2.000000*%
%TD*%
%TA.AperFunction,ViaPad*%
%ADD19C,0.800000*%
%TD*%
%TA.AperFunction,Conductor*%
%ADD20C,0.250000*%
%TD*%
%TA.AperFunction,Conductor*%
%ADD21C,0.500000*%
%TD*%
G04 APERTURE END LIST*
D10*
%TO.P,D2,1,K*%
%TO.N,GND*%
X83820000Y-69015000D03*
%TO.P,D2,2,A*%
%TO.N,Net-(D2-A)*%
X83820000Y-66040000D03*
%TD*%
D11*
%TO.P,C2,1*%
%TO.N,Net-(U1-CV)*%
X73660000Y-66040000D03*
%TO.P,C2,2*%
%TO.N,GND*%
X73660000Y-68115000D03*
%TD*%
D12*
%TO.P,R4,1*%
%TO.N,/pin_3*%
X83820000Y-59960000D03*
%TO.P,R4,2*%
%TO.N,Net-(D2-A)*%
X83820000Y-61960000D03*
%TD*%
D13*
%TO.P,D1,1,K*%
%TO.N,Net-(D1-K)*%
X82767500Y-49747500D03*
%TO.P,D1,2,A*%
%TO.N,+9V*%
X79792500Y-49747500D03*
%TD*%
D12*
%TO.P,R3,1*%
%TO.N,Net-(D1-K)*%
X83820000Y-54410000D03*
%TO.P,R3,2*%
%TO.N,/pin_3*%
X83820000Y-56410000D03*
%TD*%
%TO.P,R2,1*%
%TO.N,/pin_7*%
X60960000Y-59960000D03*
%TO.P,R2,2*%
%TO.N,/pin_2*%
X60960000Y-61960000D03*
%TD*%
D14*
%TO.P,C1,1*%
%TO.N,/pin_2*%
X62534800Y-69667400D03*
%TO.P,C1,2*%
%TO.N,GND*%
X62534800Y-72542400D03*
%TD*%
D12*
%TO.P,R1,1*%
%TO.N,+9V*%
X60960000Y-53880000D03*
%TO.P,R1,2*%
%TO.N,/pin_7*%
X60960000Y-55880000D03*
%TD*%
D15*
%TO.P,U1,1,GND*%
%TO.N,GND*%
X68580000Y-58420000D03*
%TO.P,U1,2,TR*%
%TO.N,/pin_2*%
X68580000Y-59690000D03*
%TO.P,U1,3,Q*%
%TO.N,/pin_3*%
X68580000Y-60960000D03*
%TO.P,U1,4,R*%
%TO.N,+9V*%
X68580000Y-62230000D03*
%TO.P,U1,5,CV*%
%TO.N,Net-(U1-CV)*%
X73530000Y-62230000D03*
%TO.P,U1,6,THR*%
%TO.N,/pin_2*%
X73530000Y-60960000D03*
%TO.P,U1,7,DIS*%
%TO.N,/pin_7*%
X73530000Y-59690000D03*
%TO.P,U1,8,VCC*%
%TO.N,+9V*%
X73530000Y-58420000D03*
D16*
%TO.P,U1,9*%
%TO.N,N/C*%
X71055000Y-60325000D03*
%TD*%
D17*
%TO.P,J1,1,Pin_1*%
%TO.N,+9V*%
X68580000Y-48260000D03*
D18*
%TO.P,J1,2,Pin_2*%
%TO.N,GND*%
X71080000Y-48260000D03*
%TD*%
D19*
%TO.N,/pin_2*%
X63500000Y-63500000D03*
X76200000Y-60960000D03*
%TO.N,+9V*%
X66040000Y-68580000D03*
X58420000Y-66040000D03*
X71120000Y-50800000D03*
X76200000Y-50800000D03*
%TO.N,/pin_7*%
X66040000Y-55880000D03*
X75793600Y-56718200D03*
%TO.N,/pin_3*%
X66040000Y-63500000D03*
X76200000Y-63500000D03*
%TD*%
D20*
%TO.N,/pin_2*%
X60960000Y-63500000D02*
X60960000Y-68092600D01*
X64770000Y-59690000D02*
X68580000Y-59690000D01*
X60960000Y-68092600D02*
X62534800Y-69667400D01*
X60960000Y-63500000D02*
X63500000Y-63500000D01*
X73530000Y-60960000D02*
X76200000Y-60960000D01*
X60960000Y-63500000D02*
X64770000Y-59690000D01*
X60960000Y-61960000D02*
X60960000Y-63500000D01*
%TO.N,Net-(U1-CV)*%
X73660000Y-66040000D02*
X73660000Y-62360000D01*
X73660000Y-62360000D02*
X73530000Y-62230000D01*
%TO.N,Net-(D1-K)*%
X82767500Y-49747500D02*
X82767500Y-53357500D01*
X82767500Y-53357500D02*
X83820000Y-54410000D01*
D21*
%TO.N,+9V*%
X58420000Y-53340000D02*
X60960000Y-50800000D01*
X62960000Y-53880000D02*
X66040000Y-50800000D01*
X77252500Y-49747500D02*
X76200000Y-50800000D01*
X60960000Y-50800000D02*
X66040000Y-50800000D01*
X66040000Y-50800000D02*
X68580000Y-48260000D01*
X66040000Y-64770000D02*
X66040000Y-68580000D01*
X60960000Y-53880000D02*
X62960000Y-53880000D01*
X68580000Y-62230000D02*
X66040000Y-64770000D01*
X71120000Y-50800000D02*
X68580000Y-48260000D01*
X79792500Y-49747500D02*
X77252500Y-49747500D01*
X58420000Y-66040000D02*
X58420000Y-53340000D01*
D20*
%TO.N,Net-(D2-A)*%
X83820000Y-61960000D02*
X83820000Y-66040000D01*
%TO.N,/pin_7*%
X75793600Y-56718200D02*
X75793600Y-58401400D01*
X74505000Y-59690000D02*
X73530000Y-59690000D01*
X66040000Y-55880000D02*
X60960000Y-55880000D01*
X75793600Y-58401400D02*
X74505000Y-59690000D01*
X60960000Y-55880000D02*
X60960000Y-59960000D01*
%TO.N,/pin_3*%
X83820000Y-56410000D02*
X83820000Y-58420000D01*
X67081400Y-60960000D02*
X68580000Y-60960000D01*
X66040000Y-62001400D02*
X67081400Y-60960000D01*
X66040000Y-63500000D02*
X66040000Y-62001400D01*
X83820000Y-58420000D02*
X78740000Y-63500000D01*
X78740000Y-63500000D02*
X76200000Y-63500000D01*
X83820000Y-58420000D02*
X83820000Y-59960000D01*
%TD*%
%TA.AperFunction,Conductor*%
%TO.N,GND*%
G36*
X96462539Y-35580185D02*
G01*
X96508294Y-35632989D01*
X96519500Y-35684500D01*
X96519500Y-76075500D01*
X96499815Y-76142539D01*
X96447011Y-76188294D01*
X96395500Y-76199500D01*
X50924500Y-76199500D01*
X50857461Y-76179815D01*
X50811706Y-76127011D01*
X50800500Y-76075500D01*
X50800500Y-71251187D01*
X54129500Y-71251187D01*
X54149794Y-71385823D01*
X54168604Y-71510615D01*
X54168605Y-71510617D01*
X54168606Y-71510623D01*
X54245938Y-71761326D01*
X54359767Y-71997696D01*
X54359768Y-71997697D01*
X54359770Y-71997700D01*
X54359772Y-71997704D01*
X54507567Y-72214479D01*
X54686014Y-72406801D01*
X54686018Y-72406804D01*
X54686019Y-72406805D01*
X54891143Y-72570386D01*
X55118357Y-72701568D01*
X55362584Y-72797420D01*
X55618370Y-72855802D01*
X55618376Y-72855802D01*
X55618379Y-72855803D01*
X55814500Y-72870500D01*
X55814506Y-72870500D01*
X55945500Y-72870500D01*
X56141620Y-72855803D01*
X56141622Y-72855802D01*
X56141630Y-72855802D01*
X56397416Y-72797420D01*
X56410207Y-72792400D01*
X61359801Y-72792400D01*
X61359801Y-73129886D01*
X61370294Y-73232597D01*
X61425441Y-73399019D01*
X61425443Y-73399024D01*
X61517484Y-73548245D01*
X61641454Y-73672215D01*
X61790675Y-73764256D01*
X61790680Y-73764258D01*
X61957102Y-73819405D01*
X61957109Y-73819406D01*
X62059819Y-73829899D01*
X62284799Y-73829899D01*
X62284800Y-73829898D01*
X62284800Y-72792400D01*
X62784800Y-72792400D01*
X62784800Y-73829899D01*
X63009772Y-73829899D01*
X63009786Y-73829898D01*
X63112497Y-73819405D01*
X63278919Y-73764258D01*
X63278924Y-73764256D01*
X63428145Y-73672215D01*
X63552115Y-73548245D01*
X63644156Y-73399024D01*
X63644158Y-73399019D01*
X63699305Y-73232597D01*
X63699306Y-73232590D01*
X63709799Y-73129886D01*
X63709800Y-73129873D01*
X63709800Y-72792400D01*
X62784800Y-72792400D01*
X62284800Y-72792400D01*
X61359801Y-72792400D01*
X56410207Y-72792400D01*
X56641643Y-72701568D01*
X56868857Y-72570386D01*
X57073981Y-72406805D01*
X57180133Y-72292400D01*
X61359800Y-72292400D01*
X62284800Y-72292400D01*
X62284800Y-71254900D01*
X62784800Y-71254900D01*
X62784800Y-72292400D01*
X63709799Y-72292400D01*
X63709799Y-71954928D01*
X63709798Y-71954913D01*
X63699305Y-71852202D01*
X63644158Y-71685780D01*
X63644156Y-71685775D01*
X63552115Y-71536554D01*
X63428145Y-71412584D01*
X63278924Y-71320543D01*
X63278919Y-71320541D01*
X63112497Y-71265394D01*
X63112490Y-71265393D01*
X63009786Y-71254900D01*
X62784800Y-71254900D01*
X62284800Y-71254900D01*
X62059829Y-71254900D01*
X62059812Y-71254901D01*
X61957102Y-71265394D01*
X61790680Y-71320541D01*
X61790675Y-71320543D01*
X61641454Y-71412584D01*
X61517484Y-71536554D01*
X61425443Y-71685775D01*
X61425441Y-71685780D01*
X61370294Y-71852202D01*
X61370293Y-71852209D01*
X61359800Y-71954913D01*
X61359800Y-72292400D01*
X57180133Y-72292400D01*
X57252433Y-72214479D01*
X57400228Y-71997704D01*
X57514063Y-71761323D01*
X57591396Y-71510615D01*
X57630499Y-71251187D01*
X89689500Y-71251187D01*
X89709794Y-71385823D01*
X89728604Y-71510615D01*
X89728605Y-71510617D01*
X89728606Y-71510623D01*
X89805938Y-71761326D01*
X89919767Y-71997696D01*
X89919768Y-71997697D01*
X89919770Y-71997700D01*
X89919772Y-71997704D01*
X90067567Y-72214479D01*
X90246014Y-72406801D01*
X90246018Y-72406804D01*
X90246019Y-72406805D01*
X90451143Y-72570386D01*
X90678357Y-72701568D01*
X90922584Y-72797420D01*
X91178370Y-72855802D01*
X91178376Y-72855802D01*
X91178379Y-72855803D01*
X91374500Y-72870500D01*
X91374506Y-72870500D01*
X91505500Y-72870500D01*
X91701620Y-72855803D01*
X91701622Y-72855802D01*
X91701630Y-72855802D01*
X91957416Y-72797420D01*
X92201643Y-72701568D01*
X92428857Y-72570386D01*
X92633981Y-72406805D01*
X92812433Y-72214479D01*
X92960228Y-71997704D01*
X93074063Y-71761323D01*
X93151396Y-71510615D01*
X93190500Y-71251182D01*
X93190500Y-70988818D01*
X93151396Y-70729385D01*
X93074063Y-70478677D01*
X93015801Y-70357695D01*
X92960232Y-70242303D01*
X92960231Y-70242302D01*
X92960230Y-70242301D01*
X92960228Y-70242296D01*
X92812433Y-70025521D01*
X92738504Y-69945844D01*
X92633985Y-69833198D01*
X92588115Y-69796618D01*
X92428857Y-69669614D01*
X92201643Y-69538432D01*
X91957416Y-69442580D01*
X91957411Y-69442578D01*
X91957402Y-69442576D01*
X91739818Y-69392914D01*
X91701630Y-69384198D01*
X91701629Y-69384197D01*
X91701625Y-69384197D01*
X91701620Y-69384196D01*
X91505500Y-69369500D01*
X91505494Y-69369500D01*
X91374506Y-69369500D01*
X91374500Y-69369500D01*
X91178379Y-69384196D01*
X91178374Y-69384197D01*
X90922597Y-69442576D01*
X90922578Y-69442582D01*
X90678356Y-69538432D01*
X90451143Y-69669614D01*
X90246014Y-69833198D01*
X90067567Y-70025520D01*
X89919768Y-70242302D01*
X89919767Y-70242303D01*
X89805938Y-70478673D01*
X89728606Y-70729376D01*
X89728605Y-70729381D01*
X89728604Y-70729385D01*
X89718321Y-70797610D01*
X89689500Y-70988812D01*
X89689500Y-71251187D01*
X57630499Y-71251187D01*
X57630500Y-71251182D01*
X57630500Y-70988818D01*
X57591396Y-70729385D01*
X57514063Y-70478677D01*
X57455801Y-70357695D01*
X57400232Y-70242303D01*
X57400231Y-70242302D01*
X57400230Y-70242301D01*
X57400228Y-70242296D01*
X57252433Y-70025521D01*
X57178504Y-69945844D01*
X57073985Y-69833198D01*
X57028115Y-69796618D01*
X56868857Y-69669614D01*
X56641643Y-69538432D01*
X56397416Y-69442580D01*
X56397411Y-69442578D01*
X56397402Y-69442576D01*
X56179818Y-69392914D01*
X56141630Y-69384198D01*
X56141629Y-69384197D01*
X56141625Y-69384197D01*
X56141620Y-69384196D01*
X55945500Y-69369500D01*
X55945494Y-69369500D01*
X55814506Y-69369500D01*
X55814500Y-69369500D01*
X55618379Y-69384196D01*
X55618374Y-69384197D01*
X55362597Y-69442576D01*
X55362578Y-69442582D01*
X55118356Y-69538432D01*
X54891143Y-69669614D01*
X54686014Y-69833198D01*
X54507567Y-70025520D01*
X54359768Y-70242302D01*
X54359767Y-70242303D01*
X54245938Y-70478673D01*
X54168606Y-70729376D01*
X54168605Y-70729381D01*
X54168604Y-70729385D01*
X54158321Y-70797610D01*
X54129500Y-70988812D01*
X54129500Y-71251187D01*
X50800500Y-71251187D01*
X50800500Y-66040000D01*
X57514540Y-66040000D01*
X57534326Y-66228256D01*
X57534327Y-66228259D01*
X57592818Y-66408277D01*
X57592821Y-66408284D01*
X57687467Y-66572216D01*
X57762272Y-66655295D01*
X57814129Y-66712888D01*
X57967265Y-66824148D01*
X57967270Y-66824151D01*
X58140192Y-66901142D01*
X58140197Y-66901144D01*
X58325354Y-66940500D01*
X58325355Y-66940500D01*
X58514644Y-66940500D01*
X58514646Y-66940500D01*
X58699803Y-66901144D01*
X58872730Y-66824151D01*
X59025871Y-66712888D01*
X59152533Y-66572216D01*
X59247179Y-66408284D01*
X59305674Y-66228256D01*
X59325460Y-66040000D01*
X59305674Y-65851744D01*
X59247179Y-65671716D01*
X59187113Y-65567677D01*
X59170500Y-65505677D01*
X59170500Y-53702229D01*
X59190185Y-53635190D01*
X59206819Y-53614548D01*
X59365243Y-53456124D01*
X59561959Y-53259407D01*
X59623280Y-53225924D01*
X59692971Y-53230908D01*
X59748905Y-53272779D01*
X59773322Y-53338244D01*
X59770890Y-53373049D01*
X59770001Y-53377199D01*
X59759500Y-53479983D01*
X59759500Y-54280001D01*
X59759501Y-54280019D01*
X59770000Y-54382796D01*
X59770001Y-54382799D01*
X59798310Y-54468229D01*
X59825186Y-54549334D01*
X59917287Y-54698655D01*
X59917289Y-54698657D01*
X60010951Y-54792319D01*
X60044436Y-54853642D01*
X60039452Y-54923334D01*
X60010951Y-54967681D01*
X59917289Y-55061342D01*
X59825187Y-55210663D01*
X59825185Y-55210668D01*
X59819224Y-55228657D01*
X59770001Y-55377203D01*
X59770001Y-55377204D01*
X59770000Y-55377204D01*
X59759500Y-55479983D01*
X59759500Y-56280001D01*
X59759501Y-56280019D01*
X59770000Y-56382796D01*
X59770001Y-56382799D01*
X59825185Y-56549331D01*
X59825187Y-56549336D01*
X59860069Y-56605888D01*
X59917288Y-56698656D01*
X60041344Y-56822712D01*
X60190666Y-56914814D01*
X60190668Y-56914815D01*
X60211110Y-56921588D01*
X60249502Y-56934310D01*
X60306947Y-56974081D01*
X60333772Y-57038596D01*
X60334500Y-57052016D01*
X60334500Y-58787983D01*
X60314815Y-58855022D01*
X60262011Y-58900777D01*
X60249510Y-58905686D01*
X60190666Y-58925186D01*
X60190663Y-58925187D01*
X60041342Y-59017289D01*
X59917289Y-59141342D01*
X59825187Y-59290663D01*
X59825186Y-59290666D01*
X59770001Y-59457203D01*
X59770001Y-59457204D01*
X59770000Y-59457204D01*
X59759500Y-59559983D01*
X59759500Y-60360001D01*
X59759501Y-60360019D01*
X59770000Y-60462796D01*
X59770001Y-60462799D01*
X59823005Y-60622752D01*
X59825186Y-60629334D01*
X59913022Y-60771740D01*
X59917289Y-60778657D01*
X60010951Y-60872319D01*
X60044436Y-60933642D01*
X60039452Y-61003334D01*
X60010951Y-61047681D01*
X59917289Y-61141342D01*
X59825187Y-61290663D01*
X59825185Y-61290668D01*
X59811910Y-61330731D01*
X59770001Y-61457203D01*
X59770001Y-61457204D01*
X59770000Y-61457204D01*
X59759500Y-61559983D01*
X59759500Y-62360001D01*
X59759501Y-62360019D01*
X59770000Y-62462796D01*
X59770001Y-62462799D01*
X59825185Y-62629331D01*
X59825187Y-62629336D01*
X59849835Y-62669297D01*
X59917288Y-62778656D01*
X60041344Y-62902712D01*
X60169478Y-62981745D01*
X60190668Y-62994815D01*
X60211110Y-63001588D01*
X60249502Y-63014310D01*
X60306947Y-63054081D01*
X60333772Y-63118596D01*
X60334500Y-63132016D01*
X60334500Y-63429152D01*
X60332304Y-63452384D01*
X60330773Y-63460410D01*
X60330283Y-63468197D01*
X60330001Y-63468179D01*
X60329802Y-63472396D01*
X60330085Y-63472405D01*
X60329840Y-63480196D01*
X60334225Y-63526582D01*
X60334500Y-63532421D01*
X60334500Y-68009855D01*
X60332775Y-68025472D01*
X60333061Y-68025499D01*
X60332326Y-68033265D01*
X60334500Y-68102414D01*
X60334500Y-68131943D01*
X60334501Y-68131960D01*
X60335368Y-68138831D01*
X60335826Y-68144650D01*
X60337290Y-68191224D01*
X60337291Y-68191227D01*
X60342880Y-68210467D01*
X60346824Y-68229511D01*
X60349336Y-68249391D01*
X60366490Y-68292719D01*
X60368382Y-68298247D01*
X60381381Y-68342988D01*
X60391580Y-68360234D01*
X60400138Y-68377703D01*
X60407514Y-68396332D01*
X60434898Y-68434023D01*
X60438106Y-68438907D01*
X60461827Y-68479016D01*
X60461833Y-68479024D01*
X60475990Y-68493180D01*
X60488628Y-68507976D01*
X60500405Y-68524186D01*
X60500406Y-68524187D01*
X60536309Y-68553888D01*
X60540620Y-68557810D01*
X60959910Y-68977100D01*
X61322981Y-69340171D01*
X61356466Y-69401494D01*
X61359300Y-69427852D01*
X61359300Y-70254901D01*
X61359301Y-70254919D01*
X61369800Y-70357696D01*
X61369801Y-70357699D01*
X61409890Y-70478677D01*
X61424986Y-70524234D01*
X61517088Y-70673556D01*
X61641144Y-70797612D01*
X61790466Y-70889714D01*
X61957003Y-70944899D01*
X62059791Y-70955400D01*
X63009808Y-70955399D01*
X63009816Y-70955398D01*
X63009819Y-70955398D01*
X63066102Y-70949648D01*
X63112597Y-70944899D01*
X63279134Y-70889714D01*
X63428456Y-70797612D01*
X63552512Y-70673556D01*
X63644614Y-70524234D01*
X63699799Y-70357697D01*
X63710300Y-70254909D01*
X63710299Y-69079892D01*
X63699799Y-68977103D01*
X63644614Y-68810566D01*
X63552512Y-68661244D01*
X63428456Y-68537188D01*
X63279134Y-68445086D01*
X63112597Y-68389901D01*
X63112595Y-68389900D01*
X63009816Y-68379400D01*
X63009809Y-68379400D01*
X62182753Y-68379400D01*
X62115714Y-68359715D01*
X62095072Y-68343081D01*
X61621819Y-67869828D01*
X61588334Y-67808505D01*
X61585500Y-67782147D01*
X61585500Y-64249500D01*
X61605185Y-64182461D01*
X61657989Y-64136706D01*
X61709500Y-64125500D01*
X62796252Y-64125500D01*
X62863291Y-64145185D01*
X62888400Y-64166526D01*
X62894126Y-64172885D01*
X62894130Y-64172889D01*
X63047265Y-64284148D01*
X63047270Y-64284151D01*
X63220192Y-64361142D01*
X63220197Y-64361144D01*
X63405354Y-64400500D01*
X63405355Y-64400500D01*
X63594644Y-64400500D01*
X63594646Y-64400500D01*
X63779803Y-64361144D01*
X63952730Y-64284151D01*
X64105871Y-64172888D01*
X64232533Y-64032216D01*
X64327179Y-63868284D01*
X64385674Y-63688256D01*
X64405460Y-63500000D01*
X64385674Y-63311744D01*
X64331112Y-63143823D01*
X64327181Y-63131722D01*
X64327180Y-63131721D01*
X64327179Y-63131716D01*
X64232533Y-62967784D01*
X64105871Y-62827112D01*
X64105870Y-62827111D01*
X63952734Y-62715851D01*
X63952729Y-62715848D01*
X63779807Y-62638857D01*
X63779802Y-62638855D01*
X63620338Y-62604961D01*
X63594646Y-62599500D01*
X63405354Y-62599500D01*
X63379662Y-62604961D01*
X63220197Y-62638855D01*
X63220192Y-62638857D01*
X63047270Y-62715848D01*
X63047265Y-62715851D01*
X62894130Y-62827110D01*
X62894126Y-62827114D01*
X62888400Y-62833474D01*
X62828913Y-62870121D01*
X62796252Y-62874500D01*
X62769452Y-62874500D01*
X62702413Y-62854815D01*
X62656658Y-62802011D01*
X62646714Y-62732853D01*
X62675739Y-62669297D01*
X62681771Y-62662819D01*
X64992771Y-60351819D01*
X65054094Y-60318334D01*
X65080452Y-60315500D01*
X66539267Y-60315500D01*
X66606306Y-60335185D01*
X66652061Y-60387989D01*
X66662005Y-60457147D01*
X66634807Y-60518544D01*
X66620108Y-60536311D01*
X66616177Y-60540632D01*
X65656208Y-61500599D01*
X65643951Y-61510420D01*
X65644134Y-61510641D01*
X65638123Y-61515613D01*
X65590772Y-61566036D01*
X65569889Y-61586919D01*
X65569877Y-61586932D01*
X65565621Y-61592417D01*
X65561837Y-61596847D01*
X65529937Y-61630818D01*
X65529936Y-61630820D01*
X65520284Y-61648376D01*
X65509610Y-61664626D01*
X65497329Y-61680461D01*
X65497324Y-61680468D01*
X65478815Y-61723238D01*
X65476245Y-61728484D01*
X65453803Y-61769306D01*
X65448822Y-61788707D01*
X65442521Y-61807110D01*
X65434562Y-61825502D01*
X65434561Y-61825505D01*
X65427271Y-61871527D01*
X65426087Y-61877246D01*
X65414501Y-61922372D01*
X65414500Y-61922382D01*
X65414500Y-61942416D01*
X65412973Y-61961815D01*
X65409840Y-61981594D01*
X65409840Y-61981595D01*
X65414225Y-62027983D01*
X65414500Y-62033821D01*
X65414500Y-62801312D01*
X65394815Y-62868351D01*
X65382650Y-62884284D01*
X65307466Y-62967784D01*
X65212821Y-63131715D01*
X65212818Y-63131722D01*
X65154327Y-63311740D01*
X65154326Y-63311744D01*
X65134540Y-63500000D01*
X65154326Y-63688256D01*
X65154327Y-63688259D01*
X65212818Y-63868277D01*
X65212821Y-63868284D01*
X65307467Y-64032216D01*
X65390265Y-64124172D01*
X65427843Y-64165907D01*
X65458073Y-64228898D01*
X65449448Y-64298234D01*
X65430684Y-64328582D01*
X65408698Y-64354785D01*
X65404729Y-64360819D01*
X65404682Y-64360788D01*
X65400630Y-64367147D01*
X65400679Y-64367177D01*
X65396889Y-64373321D01*
X65364424Y-64442941D01*
X65329960Y-64511566D01*
X65327488Y-64518357D01*
X65327432Y-64518336D01*
X65324960Y-64525450D01*
X65325015Y-64525469D01*
X65322742Y-64532327D01*
X65314975Y-64569946D01*
X65307207Y-64607565D01*
X65294001Y-64663284D01*
X65289498Y-64682286D01*
X65288661Y-64689454D01*
X65288601Y-64689447D01*
X65287835Y-64696945D01*
X65287895Y-64696951D01*
X65287265Y-64704140D01*
X65289500Y-64780916D01*
X65289500Y-68045677D01*
X65272887Y-68107677D01*
X65212821Y-68211714D01*
X65158888Y-68377703D01*
X65154326Y-68391744D01*
X65134540Y-68580000D01*
X65154326Y-68768256D01*
X65154327Y-68768259D01*
X65212818Y-68948277D01*
X65212821Y-68948284D01*
X65307467Y-69112216D01*
X65434129Y-69252888D01*
X65587265Y-69364148D01*
X65587270Y-69364151D01*
X65760192Y-69441142D01*
X65760197Y-69441144D01*
X65945354Y-69480500D01*
X65945355Y-69480500D01*
X66134644Y-69480500D01*
X66134646Y-69480500D01*
X66319803Y-69441144D01*
X66492730Y-69364151D01*
X66629200Y-69265000D01*
X82445000Y-69265000D01*
X82445000Y-69527485D01*
X82455493Y-69630189D01*
X82455494Y-69630196D01*
X82510641Y-69796618D01*
X82510643Y-69796623D01*
X82602684Y-69945844D01*
X82726655Y-70069815D01*
X82875876Y-70161856D01*
X82875881Y-70161858D01*
X83042303Y-70217005D01*
X83042310Y-70217006D01*
X83145014Y-70227499D01*
X83145027Y-70227500D01*
X83570000Y-70227500D01*
X83570000Y-69265000D01*
X84070000Y-69265000D01*
X84070000Y-70227500D01*
X84494973Y-70227500D01*
X84494985Y-70227499D01*
X84597689Y-70217006D01*
X84597696Y-70217005D01*
X84764118Y-70161858D01*
X84764123Y-70161856D01*
X84913344Y-70069815D01*
X85037315Y-69945844D01*
X85129356Y-69796623D01*
X85129358Y-69796618D01*
X85184505Y-69630196D01*
X85184506Y-69630189D01*
X85194999Y-69527485D01*
X85195000Y-69527472D01*
X85195000Y-69265000D01*
X84070000Y-69265000D01*
X83570000Y-69265000D01*
X82445000Y-69265000D01*
X66629200Y-69265000D01*
X66645871Y-69252888D01*
X66772533Y-69112216D01*
X66867179Y-68948284D01*
X66925674Y-68768256D01*
X66945460Y-68580000D01*
X66925674Y-68391744D01*
X66916984Y-68365000D01*
X72435001Y-68365000D01*
X72435001Y-68502486D01*
X72445494Y-68605197D01*
X72500641Y-68771619D01*
X72500643Y-68771624D01*
X72592684Y-68920845D01*
X72716654Y-69044815D01*
X72865875Y-69136856D01*
X72865880Y-69136858D01*
X73032302Y-69192005D01*
X73032309Y-69192006D01*
X73135019Y-69202499D01*
X73409999Y-69202499D01*
X73410000Y-69202498D01*
X73410000Y-68365000D01*
X73910000Y-68365000D01*
X73910000Y-69202499D01*
X74184972Y-69202499D01*
X74184986Y-69202498D01*
X74287697Y-69192005D01*
X74454119Y-69136858D01*
X74454124Y-69136856D01*
X74603345Y-69044815D01*
X74727315Y-68920845D01*
X74819356Y-68771624D01*
X74819358Y-68771619D01*
X74821551Y-68765000D01*
X82445000Y-68765000D01*
X83570000Y-68765000D01*
X83570000Y-67802500D01*
X84070000Y-67802500D01*
X84070000Y-68765000D01*
X85195000Y-68765000D01*
X85195000Y-68502527D01*
X85194999Y-68502514D01*
X85184506Y-68399810D01*
X85184505Y-68399803D01*
X85129358Y-68233381D01*
X85129356Y-68233376D01*
X85037315Y-68084155D01*
X84913344Y-67960184D01*
X84764123Y-67868143D01*
X84764118Y-67868141D01*
X84597696Y-67812994D01*
X84597689Y-67812993D01*
X84494985Y-67802500D01*
X84070000Y-67802500D01*
X83570000Y-67802500D01*
X83145014Y-67802500D01*
X83042310Y-67812993D01*
X83042303Y-67812994D01*
X82875881Y-67868141D01*
X82875876Y-67868143D01*
X82726655Y-67960184D01*
X82602684Y-68084155D01*
X82510643Y-68233376D01*
X82510641Y-68233381D01*
X82455494Y-68399803D01*
X82455493Y-68399810D01*
X82445000Y-68502514D01*
X82445000Y-68765000D01*
X74821551Y-68765000D01*
X74874505Y-68605197D01*
X74874506Y-68605190D01*
X74884999Y-68502486D01*
X74885000Y-68502473D01*
X74885000Y-68365000D01*
X73910000Y-68365000D01*
X73410000Y-68365000D01*
X72435001Y-68365000D01*
X66916984Y-68365000D01*
X66867179Y-68211716D01*
X66826773Y-68141730D01*
X66807113Y-68107677D01*
X66790500Y-68045677D01*
X66790500Y-65132229D01*
X66810185Y-65065190D01*
X66826819Y-65044548D01*
X68804548Y-63066819D01*
X68865871Y-63033334D01*
X68892229Y-63030500D01*
X69470696Y-63030500D01*
X69489131Y-63029049D01*
X69507569Y-63027598D01*
X69507571Y-63027597D01*
X69507573Y-63027597D01*
X69553310Y-63014309D01*
X69665398Y-62981744D01*
X69806865Y-62898081D01*
X69923081Y-62781865D01*
X70006744Y-62640398D01*
X70052598Y-62482569D01*
X70055500Y-62445694D01*
X70055541Y-62444643D01*
X70077836Y-62378426D01*
X70132391Y-62334774D01*
X70179446Y-62325499D01*
X71930554Y-62325499D01*
X71997593Y-62345184D01*
X72043348Y-62397988D01*
X72054459Y-62444643D01*
X72054500Y-62445700D01*
X72057401Y-62482566D01*
X72057402Y-62482573D01*
X72103254Y-62640393D01*
X72103255Y-62640396D01*
X72186917Y-62781862D01*
X72186923Y-62781870D01*
X72303129Y-62898076D01*
X72303133Y-62898079D01*
X72303135Y-62898081D01*
X72444602Y-62981744D01*
X72486224Y-62993836D01*
X72602426Y-63027597D01*
X72602429Y-63027597D01*
X72602431Y-63027598D01*
X72614722Y-63028565D01*
X72639304Y-63030500D01*
X72639306Y-63030500D01*
X72910500Y-63030500D01*
X72977539Y-63050185D01*
X73023294Y-63102989D01*
X73034500Y-63154500D01*
X73034500Y-64872199D01*
X73014815Y-64939238D01*
X72962011Y-64984993D01*
X72949507Y-64989903D01*
X72916962Y-65000688D01*
X72865668Y-65017685D01*
X72865663Y-65017687D01*
X72716342Y-65109789D01*
X72592289Y-65233842D01*
X72500187Y-65383163D01*
X72500185Y-65383168D01*
X72472349Y-65467170D01*
X72445001Y-65549703D01*
X72445001Y-65549704D01*
X72445000Y-65549704D01*
X72434500Y-65652483D01*
X72434500Y-66427501D01*
X72434501Y-66427519D01*
X72445000Y-66530296D01*
X72445001Y-66530299D01*
X72486422Y-66655297D01*
X72500186Y-66696834D01*
X72592288Y-66846156D01*
X72716344Y-66970212D01*
X72717873Y-66971155D01*
X72719653Y-66972253D01*
X72721445Y-66974246D01*
X72722011Y-66974693D01*
X72721934Y-66974789D01*
X72766379Y-67024199D01*
X72777603Y-67093161D01*
X72749761Y-67157244D01*
X72719665Y-67183326D01*
X72716660Y-67185179D01*
X72716655Y-67185183D01*
X72592684Y-67309154D01*
X72500643Y-67458375D01*
X72500641Y-67458380D01*
X72445494Y-67624802D01*
X72445493Y-67624809D01*
X72435000Y-67727513D01*
X72435000Y-67865000D01*
X74884999Y-67865000D01*
X74884999Y-67727528D01*
X74884998Y-67727513D01*
X74874505Y-67624802D01*
X74819358Y-67458380D01*
X74819356Y-67458375D01*
X74727315Y-67309154D01*
X74603344Y-67185183D01*
X74603341Y-67185181D01*
X74600339Y-67183329D01*
X74598713Y-67181521D01*
X74597677Y-67180702D01*
X74597817Y-67180524D01*
X74553617Y-67131380D01*
X74542397Y-67062417D01*
X74570243Y-66998336D01*
X74600344Y-66972254D01*
X74603656Y-66970212D01*
X74727712Y-66846156D01*
X74819814Y-66696834D01*
X74874999Y-66530297D01*
X74885500Y-66427509D01*
X74885499Y-65652492D01*
X74874999Y-65549703D01*
X74819814Y-65383166D01*
X74727712Y-65233844D01*
X74603656Y-65109788D01*
X74510888Y-65052569D01*
X74454336Y-65017687D01*
X74454331Y-65017685D01*
X74452082Y-65016939D01*
X74370495Y-64989904D01*
X74313051Y-64950132D01*
X74286228Y-64885616D01*
X74285500Y-64872199D01*
X74285500Y-63500000D01*
X75294540Y-63500000D01*
X75314326Y-63688256D01*
X75314327Y-63688259D01*
X75372818Y-63868277D01*
X75372821Y-63868284D01*
X75467467Y-64032216D01*
X75569185Y-64145185D01*
X75594129Y-64172888D01*
X75747265Y-64284148D01*
X75747270Y-64284151D01*
X75920192Y-64361142D01*
X75920197Y-64361144D01*
X76105354Y-64400500D01*
X76105355Y-64400500D01*
X76294644Y-64400500D01*
X76294646Y-64400500D01*
X76479803Y-64361144D01*
X76652730Y-64284151D01*
X76805871Y-64172888D01*
X76808788Y-64169647D01*
X76811600Y-64166526D01*
X76871087Y-64129879D01*
X76903748Y-64125500D01*
X78657257Y-64125500D01*
X78672877Y-64127224D01*
X78672904Y-64126939D01*
X78680660Y-64127671D01*
X78680667Y-64127673D01*
X78749814Y-64125500D01*
X78779350Y-64125500D01*
X78786228Y-64124630D01*
X78792041Y-64124172D01*
X78838627Y-64122709D01*
X78857869Y-64117117D01*
X78876912Y-64113174D01*
X78896792Y-64110664D01*
X78940122Y-64093507D01*
X78945646Y-64091617D01*
X78949396Y-64090527D01*
X78990390Y-64078618D01*
X79007629Y-64068422D01*
X79025103Y-64059862D01*
X79043727Y-64052488D01*
X79043727Y-64052487D01*
X79043732Y-64052486D01*
X79081449Y-64025082D01*
X79086305Y-64021892D01*
X79126420Y-63998170D01*
X79140589Y-63983999D01*
X79155379Y-63971368D01*
X79171587Y-63959594D01*
X79201299Y-63923676D01*
X79205212Y-63919376D01*
X82501838Y-60622750D01*
X82563159Y-60589267D01*
X82632851Y-60594251D01*
X82688784Y-60636123D01*
X82695056Y-60645336D01*
X82773022Y-60771740D01*
X82777289Y-60778657D01*
X82870951Y-60872319D01*
X82904436Y-60933642D01*
X82899452Y-61003334D01*
X82870951Y-61047681D01*
X82777289Y-61141342D01*
X82685187Y-61290663D01*
X82685185Y-61290668D01*
X82671910Y-61330731D01*
X82630001Y-61457203D01*
X82630001Y-61457204D01*
X82630000Y-61457204D01*
X82619500Y-61559983D01*
X82619500Y-62360001D01*
X82619501Y-62360019D01*
X82630000Y-62462796D01*
X82630001Y-62462799D01*
X82685185Y-62629331D01*
X82685187Y-62629336D01*
X82709835Y-62669297D01*
X82777288Y-62778656D01*
X82901344Y-62902712D01*
X83029478Y-62981745D01*
X83050668Y-62994815D01*
X83071110Y-63001588D01*
X83109502Y-63014310D01*
X83166947Y-63054081D01*
X83193772Y-63118596D01*
X83194500Y-63132016D01*
X83194500Y-64709964D01*
X83174815Y-64777003D01*
X83122011Y-64822758D01*
X83083104Y-64833322D01*
X83042204Y-64837500D01*
X83042203Y-64837501D01*
X82875664Y-64892686D01*
X82875662Y-64892687D01*
X82726348Y-64984786D01*
X82726344Y-64984789D01*
X82602289Y-65108844D01*
X82602286Y-65108848D01*
X82510187Y-65258162D01*
X82510186Y-65258164D01*
X82455001Y-65424703D01*
X82455000Y-65424704D01*
X82444500Y-65527484D01*
X82444500Y-66552515D01*
X82455000Y-66655295D01*
X82455001Y-66655296D01*
X82510186Y-66821835D01*
X82510187Y-66821837D01*
X82602286Y-66971151D01*
X82602289Y-66971155D01*
X82726344Y-67095210D01*
X82726348Y-67095213D01*
X82875662Y-67187312D01*
X82875664Y-67187313D01*
X82875666Y-67187314D01*
X83042203Y-67242499D01*
X83144992Y-67253000D01*
X83144997Y-67253000D01*
X84495003Y-67253000D01*
X84495008Y-67253000D01*
X84597797Y-67242499D01*
X84764334Y-67187314D01*
X84913655Y-67095211D01*
X85037711Y-66971155D01*
X85129814Y-66821834D01*
X85184999Y-66655297D01*
X85195500Y-66552508D01*
X85195500Y-65527492D01*
X85184999Y-65424703D01*
X85129814Y-65258166D01*
X85037711Y-65108845D01*
X84913655Y-64984789D01*
X84913651Y-64984786D01*
X84764337Y-64892687D01*
X84764335Y-64892686D01*
X84681065Y-64865093D01*
X84597797Y-64837501D01*
X84597795Y-64837500D01*
X84556896Y-64833322D01*
X84492205Y-64806925D01*
X84452054Y-64749744D01*
X84445500Y-64709964D01*
X84445500Y-63132016D01*
X84465185Y-63064977D01*
X84517989Y-63019222D01*
X84530488Y-63014313D01*
X84589334Y-62994814D01*
X84738656Y-62902712D01*
X84862712Y-62778656D01*
X84954814Y-62629334D01*
X85009999Y-62462797D01*
X85020500Y-62360009D01*
X85020499Y-61559992D01*
X85009999Y-61457203D01*
X84954814Y-61290666D01*
X84862712Y-61141344D01*
X84769049Y-61047681D01*
X84735564Y-60986358D01*
X84740548Y-60916666D01*
X84769049Y-60872319D01*
X84862712Y-60778656D01*
X84954814Y-60629334D01*
X85009999Y-60462797D01*
X85020500Y-60360009D01*
X85020499Y-59559992D01*
X85009999Y-59457203D01*
X84954814Y-59290666D01*
X84862712Y-59141344D01*
X84738656Y-59017288D01*
X84589334Y-58925186D01*
X84530493Y-58905688D01*
X84473051Y-58865916D01*
X84446228Y-58801400D01*
X84445500Y-58787983D01*
X84445500Y-58478983D01*
X84447027Y-58459582D01*
X84450160Y-58439804D01*
X84445775Y-58393415D01*
X84445500Y-58387577D01*
X84445500Y-57582016D01*
X84465185Y-57514977D01*
X84517989Y-57469222D01*
X84530488Y-57464313D01*
X84589334Y-57444814D01*
X84738656Y-57352712D01*
X84862712Y-57228656D01*
X84954814Y-57079334D01*
X85009999Y-56912797D01*
X85020500Y-56810009D01*
X85020499Y-56009992D01*
X85009999Y-55907203D01*
X84954814Y-55740666D01*
X84862712Y-55591344D01*
X84769049Y-55497681D01*
X84735564Y-55436358D01*
X84740548Y-55366666D01*
X84769049Y-55322319D01*
X84862712Y-55228656D01*
X84954814Y-55079334D01*
X85009999Y-54912797D01*
X85020500Y-54810009D01*
X85020499Y-54009992D01*
X85009999Y-53907203D01*
X84954814Y-53740666D01*
X84862712Y-53591344D01*
X84738656Y-53467288D01*
X84635613Y-53403731D01*
X84589336Y-53375187D01*
X84589331Y-53375185D01*
X84565578Y-53367314D01*
X84422797Y-53320001D01*
X84422795Y-53320000D01*
X84320016Y-53309500D01*
X84320009Y-53309500D01*
X83655453Y-53309500D01*
X83588414Y-53289815D01*
X83567772Y-53273181D01*
X83429319Y-53134728D01*
X83395834Y-53073405D01*
X83393000Y-53047047D01*
X83393000Y-51198658D01*
X83412685Y-51131619D01*
X83465489Y-51085864D01*
X83477984Y-51080956D01*
X83549334Y-51057314D01*
X83698655Y-50965211D01*
X83822711Y-50841155D01*
X83914814Y-50691834D01*
X83969999Y-50525297D01*
X83980500Y-50422508D01*
X83980500Y-49072492D01*
X83969999Y-48969703D01*
X83914814Y-48803166D01*
X83822711Y-48653845D01*
X83698655Y-48529789D01*
X83698651Y-48529786D01*
X83549337Y-48437687D01*
X83549335Y-48437686D01*
X83466065Y-48410093D01*
X83382797Y-48382501D01*
X83382795Y-48382500D01*
X83280015Y-48372000D01*
X83280008Y-48372000D01*
X82254992Y-48372000D01*
X82254984Y-48372000D01*
X82152204Y-48382500D01*
X82152203Y-48382501D01*
X81985664Y-48437686D01*
X81985662Y-48437687D01*
X81836348Y-48529786D01*
X81836344Y-48529789D01*
X81712289Y-48653844D01*
X81712286Y-48653848D01*
X81620187Y-48803162D01*
X81620186Y-48803164D01*
X81565001Y-48969703D01*
X81565000Y-48969704D01*
X81554500Y-49072484D01*
X81554500Y-50422515D01*
X81565000Y-50525295D01*
X81565001Y-50525296D01*
X81620186Y-50691835D01*
X81620187Y-50691837D01*
X81712286Y-50841151D01*
X81712289Y-50841155D01*
X81836344Y-50965210D01*
X81836348Y-50965213D01*
X81985657Y-51057309D01*
X81985660Y-51057310D01*
X81985666Y-51057314D01*
X82057005Y-51080953D01*
X82114448Y-51120724D01*
X82141272Y-51185240D01*
X82142000Y-51198658D01*
X82142000Y-53274755D01*
X82140275Y-53290372D01*
X82140561Y-53290399D01*
X82139826Y-53298165D01*
X82142000Y-53367314D01*
X82142000Y-53396843D01*
X82142001Y-53396860D01*
X82142868Y-53403731D01*
X82143326Y-53409550D01*
X82144790Y-53456124D01*
X82144791Y-53456127D01*
X82150380Y-53475367D01*
X82154324Y-53494411D01*
X82156836Y-53514291D01*
X82173990Y-53557619D01*
X82175882Y-53563147D01*
X82184074Y-53591344D01*
X82188882Y-53607890D01*
X82192819Y-53614548D01*
X82199080Y-53625134D01*
X82207638Y-53642603D01*
X82215014Y-53661232D01*
X82242398Y-53698923D01*
X82245606Y-53703807D01*
X82269327Y-53743916D01*
X82269333Y-53743924D01*
X82283490Y-53758080D01*
X82296128Y-53772876D01*
X82307905Y-53789086D01*
X82307906Y-53789087D01*
X82343809Y-53818788D01*
X82348120Y-53822710D01*
X82535390Y-54009980D01*
X82583181Y-54057771D01*
X82616666Y-54119094D01*
X82619500Y-54145452D01*
X82619500Y-54810001D01*
X82619501Y-54810019D01*
X82630000Y-54912796D01*
X82630001Y-54912799D01*
X82665146Y-55018857D01*
X82685186Y-55079334D01*
X82763998Y-55207110D01*
X82777289Y-55228657D01*
X82870951Y-55322319D01*
X82904436Y-55383642D01*
X82899452Y-55453334D01*
X82870951Y-55497681D01*
X82777289Y-55591342D01*
X82685187Y-55740663D01*
X82685186Y-55740666D01*
X82630001Y-55907203D01*
X82630001Y-55907204D01*
X82630000Y-55907204D01*
X82619500Y-56009983D01*
X82619500Y-56810001D01*
X82619501Y-56810019D01*
X82630000Y-56912796D01*
X82630001Y-56912799D01*
X82653919Y-56984977D01*
X82685186Y-57079334D01*
X82777288Y-57228656D01*
X82901344Y-57352712D01*
X83005389Y-57416887D01*
X83050668Y-57444815D01*
X83071110Y-57451588D01*
X83109502Y-57464310D01*
X83166947Y-57504081D01*
X83193772Y-57568596D01*
X83194500Y-57582016D01*
X83194500Y-58109547D01*
X83174815Y-58176586D01*
X83158181Y-58197228D01*
X78517228Y-62838181D01*
X78455905Y-62871666D01*
X78429547Y-62874500D01*
X76903748Y-62874500D01*
X76836709Y-62854815D01*
X76811600Y-62833474D01*
X76805873Y-62827114D01*
X76805869Y-62827110D01*
X76652734Y-62715851D01*
X76652729Y-62715848D01*
X76479807Y-62638857D01*
X76479802Y-62638855D01*
X76320338Y-62604961D01*
X76294646Y-62599500D01*
X76105354Y-62599500D01*
X76079662Y-62604961D01*
X75920197Y-62638855D01*
X75920192Y-62638857D01*
X75747270Y-62715848D01*
X75747265Y-62715851D01*
X75594129Y-62827111D01*
X75467466Y-62967785D01*
X75372821Y-63131715D01*
X75372818Y-63131722D01*
X75314327Y-63311740D01*
X75314326Y-63311744D01*
X75294540Y-63500000D01*
X74285500Y-63500000D01*
X74285500Y-63154500D01*
X74305185Y-63087461D01*
X74357989Y-63041706D01*
X74409500Y-63030500D01*
X74420696Y-63030500D01*
X74439131Y-63029049D01*
X74457569Y-63027598D01*
X74457571Y-63027597D01*
X74457573Y-63027597D01*
X74503310Y-63014309D01*
X74615398Y-62981744D01*
X74756865Y-62898081D01*
X74873081Y-62781865D01*
X74956744Y-62640398D01*
X75002598Y-62482569D01*
X75005500Y-62445694D01*
X75005500Y-62014306D01*
X75002598Y-61977431D01*
X74986604Y-61922381D01*
X74956745Y-61819606D01*
X74956745Y-61819605D01*
X74956744Y-61819604D01*
X74956744Y-61819602D01*
X74928958Y-61772619D01*
X74911778Y-61704896D01*
X74933938Y-61638634D01*
X74988404Y-61594871D01*
X75035692Y-61585500D01*
X75496252Y-61585500D01*
X75563291Y-61605185D01*
X75588400Y-61626526D01*
X75594126Y-61632885D01*
X75594130Y-61632889D01*
X75747265Y-61744148D01*
X75747270Y-61744151D01*
X75920192Y-61821142D01*
X75920197Y-61821144D01*
X76105354Y-61860500D01*
X76105355Y-61860500D01*
X76294644Y-61860500D01*
X76294646Y-61860500D01*
X76479803Y-61821144D01*
X76652730Y-61744151D01*
X76805871Y-61632888D01*
X76932533Y-61492216D01*
X77027179Y-61328284D01*
X77085674Y-61148256D01*
X77105460Y-60960000D01*
X77085674Y-60771744D01*
X77027179Y-60591716D01*
X76932533Y-60427784D01*
X76805871Y-60287112D01*
X76805870Y-60287111D01*
X76652734Y-60175851D01*
X76652729Y-60175848D01*
X76479807Y-60098857D01*
X76479802Y-60098855D01*
X76334001Y-60067865D01*
X76294646Y-60059500D01*
X76105354Y-60059500D01*
X76072897Y-60066398D01*
X75920197Y-60098855D01*
X75920192Y-60098857D01*
X75747270Y-60175848D01*
X75747265Y-60175851D01*
X75594130Y-60287110D01*
X75594126Y-60287114D01*
X75588400Y-60293474D01*
X75528913Y-60330121D01*
X75496252Y-60334500D01*
X75047133Y-60334500D01*
X74980094Y-60314815D01*
X74934339Y-60262011D01*
X74924395Y-60192853D01*
X74951583Y-60131467D01*
X74955733Y-60126449D01*
X74966302Y-60113673D01*
X74970211Y-60109377D01*
X76177386Y-58902202D01*
X76189648Y-58892380D01*
X76189465Y-58892159D01*
X76195467Y-58887192D01*
X76195477Y-58887186D01*
X76242841Y-58836748D01*
X76263720Y-58815870D01*
X76267973Y-58810386D01*
X76271750Y-58805963D01*
X76303662Y-58771982D01*
X76313314Y-58754423D01*
X76323989Y-58738172D01*
X76336274Y-58722336D01*
X76354786Y-58679552D01*
X76357342Y-58674335D01*
X76379797Y-58633492D01*
X76384780Y-58614080D01*
X76391077Y-58595691D01*
X76399038Y-58577295D01*
X76406329Y-58531253D01*
X76407508Y-58525562D01*
X76419100Y-58480419D01*
X76419100Y-58460383D01*
X76420627Y-58440982D01*
X76420814Y-58439804D01*
X76423760Y-58421204D01*
X76419375Y-58374815D01*
X76419100Y-58368977D01*
X76419100Y-57416887D01*
X76438785Y-57349848D01*
X76450950Y-57333915D01*
X76469491Y-57313322D01*
X76526133Y-57250416D01*
X76620779Y-57086484D01*
X76679274Y-56906456D01*
X76699060Y-56718200D01*
X76679274Y-56529944D01*
X76620779Y-56349916D01*
X76526133Y-56185984D01*
X76399471Y-56045312D01*
X76399470Y-56045311D01*
X76246334Y-55934051D01*
X76246329Y-55934048D01*
X76073407Y-55857057D01*
X76073402Y-55857055D01*
X75927601Y-55826065D01*
X75888246Y-55817700D01*
X75698954Y-55817700D01*
X75666497Y-55824598D01*
X75513797Y-55857055D01*
X75513792Y-55857057D01*
X75340870Y-55934048D01*
X75340865Y-55934051D01*
X75187729Y-56045311D01*
X75061066Y-56185985D01*
X74966421Y-56349915D01*
X74966418Y-56349922D01*
X74946178Y-56412216D01*
X74907926Y-56529944D01*
X74888140Y-56718200D01*
X74907926Y-56906456D01*
X74907927Y-56906459D01*
X74966418Y-57086477D01*
X74966421Y-57086484D01*
X75061067Y-57250416D01*
X75104372Y-57298510D01*
X75136250Y-57333915D01*
X75166480Y-57396906D01*
X75168100Y-57416887D01*
X75168100Y-57913718D01*
X75148415Y-57980757D01*
X75095611Y-58026512D01*
X75026453Y-58036456D01*
X74962897Y-58007431D01*
X74937368Y-57976839D01*
X74873081Y-57868135D01*
X74873079Y-57868133D01*
X74873076Y-57868129D01*
X74756870Y-57751923D01*
X74756862Y-57751917D01*
X74678681Y-57705681D01*
X74615398Y-57668256D01*
X74615397Y-57668255D01*
X74615396Y-57668255D01*
X74615393Y-57668254D01*
X74457573Y-57622402D01*
X74457567Y-57622401D01*
X74420696Y-57619500D01*
X74420694Y-57619500D01*
X72639306Y-57619500D01*
X72639304Y-57619500D01*
X72602432Y-57622401D01*
X72602426Y-57622402D01*
X72444606Y-57668254D01*
X72444603Y-57668255D01*
X72303137Y-57751917D01*
X72303129Y-57751923D01*
X72186923Y-57868129D01*
X72186917Y-57868137D01*
X72103255Y-58009603D01*
X72103254Y-58009606D01*
X72057402Y-58167426D01*
X72057401Y-58167433D01*
X72054500Y-58204300D01*
X72054459Y-58205357D01*
X72032164Y-58271574D01*
X71977608Y-58315225D01*
X71930554Y-58324500D01*
X70178944Y-58324500D01*
X70111905Y-58304815D01*
X70066150Y-58252011D01*
X70055039Y-58205358D01*
X70055000Y-58204353D01*
X70052100Y-58167511D01*
X70052099Y-58167504D01*
X70006283Y-58009806D01*
X70006282Y-58009803D01*
X69922685Y-57868447D01*
X69922678Y-57868438D01*
X69806561Y-57752321D01*
X69806552Y-57752314D01*
X69665196Y-57668717D01*
X69665193Y-57668716D01*
X69507495Y-57622900D01*
X69507489Y-57622899D01*
X69470644Y-57620000D01*
X68830000Y-57620000D01*
X68830000Y-58546000D01*
X68810315Y-58613039D01*
X68757511Y-58658794D01*
X68706000Y-58670000D01*
X67107705Y-58670000D01*
X67107704Y-58670001D01*
X67107899Y-58672486D01*
X67153718Y-58830198D01*
X67181621Y-58877379D01*
X67198804Y-58945103D01*
X67176644Y-59011365D01*
X67122178Y-59055129D01*
X67074889Y-59064500D01*
X64852743Y-59064500D01*
X64837122Y-59062775D01*
X64837095Y-59063061D01*
X64829333Y-59062326D01*
X64760172Y-59064500D01*
X64730649Y-59064500D01*
X64723778Y-59065367D01*
X64717959Y-59065825D01*
X64671374Y-59067289D01*
X64671368Y-59067290D01*
X64652126Y-59072880D01*
X64633087Y-59076823D01*
X64613217Y-59079334D01*
X64613203Y-59079337D01*
X64569883Y-59096488D01*
X64564358Y-59098380D01*
X64519613Y-59111380D01*
X64519610Y-59111381D01*
X64502366Y-59121579D01*
X64484905Y-59130133D01*
X64466274Y-59137510D01*
X64466262Y-59137517D01*
X64428570Y-59164902D01*
X64423687Y-59168109D01*
X64383580Y-59191829D01*
X64369414Y-59205995D01*
X64354624Y-59218627D01*
X64338414Y-59230404D01*
X64338411Y-59230407D01*
X64308710Y-59266309D01*
X64304777Y-59270631D01*
X62278162Y-61297246D01*
X62216839Y-61330731D01*
X62147147Y-61325747D01*
X62091214Y-61283875D01*
X62084942Y-61274661D01*
X62002712Y-61141344D01*
X61909049Y-61047681D01*
X61875564Y-60986358D01*
X61880548Y-60916666D01*
X61909049Y-60872319D01*
X62002712Y-60778656D01*
X62094814Y-60629334D01*
X62149999Y-60462797D01*
X62160500Y-60360009D01*
X62160499Y-59559992D01*
X62149999Y-59457203D01*
X62094814Y-59290666D01*
X62002712Y-59141344D01*
X61878656Y-59017288D01*
X61729334Y-58925186D01*
X61670493Y-58905688D01*
X61613051Y-58865916D01*
X61586228Y-58801400D01*
X61585500Y-58787983D01*
X61585500Y-58169998D01*
X67107704Y-58169998D01*
X67107705Y-58170000D01*
X68330000Y-58170000D01*
X68330000Y-57620000D01*
X67689356Y-57620000D01*
X67652510Y-57622899D01*
X67652504Y-57622900D01*
X67494806Y-57668716D01*
X67494803Y-57668717D01*
X67353447Y-57752314D01*
X67353438Y-57752321D01*
X67237321Y-57868438D01*
X67237314Y-57868447D01*
X67153718Y-58009801D01*
X67107899Y-58167513D01*
X67107704Y-58169998D01*
X61585500Y-58169998D01*
X61585500Y-57052016D01*
X61605185Y-56984977D01*
X61657989Y-56939222D01*
X61670488Y-56934313D01*
X61729334Y-56914814D01*
X61878656Y-56822712D01*
X62002712Y-56698656D01*
X62085519Y-56564402D01*
X62137467Y-56517679D01*
X62191058Y-56505500D01*
X65336252Y-56505500D01*
X65403291Y-56525185D01*
X65428400Y-56546526D01*
X65434126Y-56552885D01*
X65434130Y-56552889D01*
X65587265Y-56664148D01*
X65587270Y-56664151D01*
X65760192Y-56741142D01*
X65760197Y-56741144D01*
X65945354Y-56780500D01*
X65945355Y-56780500D01*
X66134644Y-56780500D01*
X66134646Y-56780500D01*
X66319803Y-56741144D01*
X66492730Y-56664151D01*
X66645871Y-56552888D01*
X66772533Y-56412216D01*
X66867179Y-56248284D01*
X66925674Y-56068256D01*
X66945460Y-55880000D01*
X66925674Y-55691744D01*
X66867179Y-55511716D01*
X66772533Y-55347784D01*
X66645871Y-55207112D01*
X66645870Y-55207111D01*
X66492734Y-55095851D01*
X66492729Y-55095848D01*
X66319807Y-55018857D01*
X66319802Y-55018855D01*
X66174001Y-54987865D01*
X66134646Y-54979500D01*
X65945354Y-54979500D01*
X65912897Y-54986398D01*
X65760197Y-55018855D01*
X65760192Y-55018857D01*
X65587270Y-55095848D01*
X65587265Y-55095851D01*
X65434130Y-55207110D01*
X65434126Y-55207114D01*
X65428400Y-55213474D01*
X65368913Y-55250121D01*
X65336252Y-55254500D01*
X62191058Y-55254500D01*
X62124019Y-55234815D01*
X62085519Y-55195597D01*
X62002712Y-55061344D01*
X61909049Y-54967681D01*
X61875564Y-54906358D01*
X61880548Y-54836666D01*
X61909049Y-54792319D01*
X62002712Y-54698656D01*
X62008420Y-54689402D01*
X62060368Y-54642678D01*
X62113958Y-54630500D01*
X62896295Y-54630500D01*
X62914265Y-54631809D01*
X62938023Y-54635289D01*
X62990068Y-54630735D01*
X62995470Y-54630500D01*
X63003704Y-54630500D01*
X63003709Y-54630500D01*
X63015327Y-54629141D01*
X63036276Y-54626693D01*
X63049028Y-54625577D01*
X63112797Y-54619999D01*
X63112805Y-54619996D01*
X63119866Y-54618539D01*
X63119878Y-54618598D01*
X63127243Y-54616965D01*
X63127229Y-54616906D01*
X63134246Y-54615241D01*
X63134255Y-54615241D01*
X63206423Y-54588974D01*
X63279334Y-54564814D01*
X63279343Y-54564807D01*
X63285882Y-54561760D01*
X63285908Y-54561816D01*
X63292690Y-54558532D01*
X63292663Y-54558478D01*
X63299106Y-54555240D01*
X63299117Y-54555237D01*
X63363283Y-54513034D01*
X63428656Y-54472712D01*
X63428662Y-54472705D01*
X63434325Y-54468229D01*
X63434363Y-54468277D01*
X63440200Y-54463522D01*
X63440161Y-54463475D01*
X63445696Y-54458830D01*
X63498385Y-54402983D01*
X65319411Y-52581956D01*
X66507511Y-51393855D01*
X66520199Y-51383521D01*
X66520161Y-51383475D01*
X66525696Y-51378830D01*
X66578385Y-51322982D01*
X66619028Y-51282340D01*
X66619030Y-51282336D01*
X68104548Y-49796817D01*
X68165871Y-49763333D01*
X68192229Y-49760499D01*
X68967769Y-49760499D01*
X69034808Y-49780184D01*
X69055450Y-49796818D01*
X70207228Y-50948595D01*
X70237478Y-50997958D01*
X70292818Y-51168277D01*
X70292821Y-51168284D01*
X70387467Y-51332216D01*
X70442972Y-51393860D01*
X70514129Y-51472888D01*
X70667265Y-51584148D01*
X70667270Y-51584151D01*
X70840192Y-51661142D01*
X70840197Y-51661144D01*
X71025354Y-51700500D01*
X71025355Y-51700500D01*
X71214644Y-51700500D01*
X71214646Y-51700500D01*
X71399803Y-51661144D01*
X71572730Y-51584151D01*
X71725871Y-51472888D01*
X71852533Y-51332216D01*
X71947179Y-51168284D01*
X72005674Y-50988256D01*
X72025460Y-50800000D01*
X75294540Y-50800000D01*
X75314326Y-50988256D01*
X75314327Y-50988259D01*
X75372818Y-51168277D01*
X75372821Y-51168284D01*
X75467467Y-51332216D01*
X75522972Y-51393860D01*
X75594129Y-51472888D01*
X75747265Y-51584148D01*
X75747270Y-51584151D01*
X75920192Y-51661142D01*
X75920197Y-51661144D01*
X76105354Y-51700500D01*
X76105355Y-51700500D01*
X76294644Y-51700500D01*
X76294646Y-51700500D01*
X76479803Y-51661144D01*
X76652730Y-51584151D01*
X76805871Y-51472888D01*
X76932533Y-51332216D01*
X77027179Y-51168284D01*
X77082522Y-50997956D01*
X77112768Y-50948598D01*
X77527049Y-50534319D01*
X77588372Y-50500834D01*
X77614730Y-50498000D01*
X78491415Y-50498000D01*
X78558454Y-50517685D01*
X78604209Y-50570489D01*
X78609118Y-50582989D01*
X78618647Y-50611744D01*
X78645186Y-50691835D01*
X78645187Y-50691837D01*
X78737286Y-50841151D01*
X78737289Y-50841155D01*
X78861344Y-50965210D01*
X78861348Y-50965213D01*
X79010662Y-51057312D01*
X79010664Y-51057313D01*
X79010666Y-51057314D01*
X79177203Y-51112499D01*
X79279992Y-51123000D01*
X79279997Y-51123000D01*
X80305003Y-51123000D01*
X80305008Y-51123000D01*
X80407797Y-51112499D01*
X80574334Y-51057314D01*
X80723655Y-50965211D01*
X80847711Y-50841155D01*
X80939814Y-50691834D01*
X80994999Y-50525297D01*
X81005500Y-50422508D01*
X81005500Y-49072492D01*
X80994999Y-48969703D01*
X80939814Y-48803166D01*
X80847711Y-48653845D01*
X80723655Y-48529789D01*
X80723651Y-48529786D01*
X80574337Y-48437687D01*
X80574335Y-48437686D01*
X80491065Y-48410093D01*
X80407797Y-48382501D01*
X80407795Y-48382500D01*
X80305015Y-48372000D01*
X80305008Y-48372000D01*
X79279992Y-48372000D01*
X79279984Y-48372000D01*
X79177204Y-48382500D01*
X79177203Y-48382501D01*
X79010664Y-48437686D01*
X79010662Y-48437687D01*
X78861348Y-48529786D01*
X78861344Y-48529789D01*
X78737289Y-48653844D01*
X78737286Y-48653848D01*
X78645187Y-48803162D01*
X78645186Y-48803164D01*
X78609121Y-48912004D01*
X78569349Y-48969449D01*
X78504833Y-48996272D01*
X78491415Y-48997000D01*
X77316205Y-48997000D01*
X77298235Y-48995691D01*
X77274472Y-48992210D01*
X77229033Y-48996186D01*
X77222431Y-48996764D01*
X77217030Y-48997000D01*
X77208789Y-48997000D01*
X77187079Y-48999537D01*
X77176224Y-49000806D01*
X77160919Y-49002145D01*
X77099699Y-49007501D01*
X77092632Y-49008960D01*
X77092620Y-49008904D01*
X77085263Y-49010535D01*
X77085277Y-49010592D01*
X77078243Y-49012259D01*
X77006075Y-49038525D01*
X76933175Y-49062681D01*
X76926626Y-49065736D01*
X76926601Y-49065683D01*
X76919808Y-49068971D01*
X76919834Y-49069023D01*
X76913380Y-49072264D01*
X76849208Y-49114471D01*
X76783847Y-49154785D01*
X76778183Y-49159265D01*
X76778147Y-49159219D01*
X76772298Y-49163984D01*
X76772335Y-49164028D01*
X76766810Y-49168664D01*
X76714098Y-49224534D01*
X76047229Y-49891402D01*
X75985906Y-49924887D01*
X75985330Y-49925011D01*
X75920196Y-49938856D01*
X75920192Y-49938857D01*
X75747270Y-50015848D01*
X75747265Y-50015851D01*
X75594129Y-50127111D01*
X75467466Y-50267785D01*
X75372821Y-50431715D01*
X75372818Y-50431722D01*
X75314327Y-50611740D01*
X75314326Y-50611744D01*
X75294540Y-50800000D01*
X72025460Y-50800000D01*
X72005674Y-50611744D01*
X71947179Y-50431716D01*
X71852533Y-50267784D01*
X71725871Y-50127112D01*
X71725870Y-50127111D01*
X71572734Y-50015851D01*
X71572729Y-50015848D01*
X71415529Y-49945857D01*
X71362292Y-49900607D01*
X71341971Y-49833757D01*
X71361017Y-49766534D01*
X71413383Y-49720279D01*
X71433872Y-49712803D01*
X71543483Y-49683433D01*
X71543492Y-49683429D01*
X71757577Y-49583600D01*
X71757579Y-49583599D01*
X71951073Y-49448113D01*
X71951079Y-49448108D01*
X72118108Y-49281079D01*
X72118113Y-49281073D01*
X72253599Y-49087579D01*
X72253600Y-49087577D01*
X72353429Y-48873492D01*
X72353433Y-48873483D01*
X72414567Y-48645326D01*
X72414569Y-48645315D01*
X72426407Y-48510000D01*
X71513686Y-48510000D01*
X71539493Y-48469844D01*
X71580000Y-48331889D01*
X71580000Y-48188111D01*
X71539493Y-48050156D01*
X71513686Y-48010000D01*
X72426407Y-48010000D01*
X72426407Y-48009999D01*
X72414569Y-47874684D01*
X72414567Y-47874673D01*
X72353433Y-47646516D01*
X72353429Y-47646507D01*
X72253600Y-47432422D01*
X72253599Y-47432420D01*
X72118113Y-47238926D01*
X72118108Y-47238920D01*
X71951082Y-47071894D01*
X71757578Y-46936399D01*
X71543492Y-46836570D01*
X71543486Y-46836567D01*
X71330000Y-46779364D01*
X71330000Y-47824498D01*
X71222315Y-47775320D01*
X71115763Y-47760000D01*
X71044237Y-47760000D01*
X70937685Y-47775320D01*
X70830000Y-47824498D01*
X70830000Y-46779364D01*
X70829999Y-46779364D01*
X70616513Y-46836567D01*
X70616507Y-46836570D01*
X70402422Y-46936399D01*
X70402420Y-46936400D01*
X70208926Y-47071886D01*
X70061668Y-47219144D01*
X70000345Y-47252628D01*
X69930653Y-47247644D01*
X69874720Y-47205772D01*
X69868448Y-47196558D01*
X69772712Y-47041344D01*
X69648657Y-46917289D01*
X69648656Y-46917288D01*
X69499334Y-46825186D01*
X69332797Y-46770001D01*
X69332795Y-46770000D01*
X69230010Y-46759500D01*
X67929998Y-46759500D01*
X67929981Y-46759501D01*
X67827203Y-46770000D01*
X67827200Y-46770001D01*
X67660668Y-46825185D01*
X67660663Y-46825187D01*
X67511342Y-46917289D01*
X67387289Y-47041342D01*
X67295187Y-47190663D01*
X67295185Y-47190668D01*
X67290180Y-47205772D01*
X67240001Y-47357203D01*
X67240001Y-47357204D01*
X67240000Y-47357204D01*
X67229500Y-47459983D01*
X67229500Y-48497769D01*
X67209815Y-48564808D01*
X67193181Y-48585450D01*
X65765451Y-50013181D01*
X65704128Y-50046666D01*
X65677770Y-50049500D01*
X61023705Y-50049500D01*
X61005735Y-50048191D01*
X60981972Y-50044710D01*
X60936890Y-50048655D01*
X60929933Y-50049264D01*
X60924532Y-50049500D01*
X60916288Y-50049500D01*
X60883707Y-50053308D01*
X60807199Y-50060001D01*
X60800133Y-50061461D01*
X60800121Y-50061404D01*
X60792754Y-50063038D01*
X60792768Y-50063094D01*
X60785751Y-50064756D01*
X60713573Y-50091026D01*
X60640662Y-50115187D01*
X60634119Y-50118238D01*
X60634094Y-50118186D01*
X60627314Y-50121468D01*
X60627340Y-50121520D01*
X60620881Y-50124764D01*
X60556709Y-50166970D01*
X60491345Y-50207288D01*
X60485677Y-50211770D01*
X60485641Y-50211724D01*
X60479798Y-50216484D01*
X60479835Y-50216528D01*
X60474310Y-50221164D01*
X60421597Y-50277035D01*
X57934358Y-52764272D01*
X57920729Y-52776051D01*
X57901468Y-52790390D01*
X57867898Y-52830397D01*
X57864253Y-52834376D01*
X57858409Y-52840222D01*
X57838059Y-52865959D01*
X57788695Y-52924789D01*
X57784729Y-52930819D01*
X57784682Y-52930788D01*
X57780630Y-52937147D01*
X57780679Y-52937177D01*
X57776889Y-52943321D01*
X57744424Y-53012941D01*
X57709960Y-53081566D01*
X57707488Y-53088357D01*
X57707432Y-53088336D01*
X57704960Y-53095450D01*
X57705015Y-53095469D01*
X57702742Y-53102327D01*
X57697717Y-53126666D01*
X57687207Y-53177565D01*
X57675746Y-53225924D01*
X57669498Y-53252286D01*
X57668661Y-53259454D01*
X57668601Y-53259447D01*
X57667835Y-53266945D01*
X57667895Y-53266951D01*
X57667265Y-53274140D01*
X57669500Y-53350916D01*
X57669500Y-65505677D01*
X57652887Y-65567677D01*
X57592821Y-65671714D01*
X57534327Y-65851740D01*
X57534326Y-65851744D01*
X57514540Y-66040000D01*
X50800500Y-66040000D01*
X50800500Y-40771187D01*
X54129500Y-40771187D01*
X54149794Y-40905823D01*
X54168604Y-41030615D01*
X54168605Y-41030617D01*
X54168606Y-41030623D01*
X54245938Y-41281326D01*
X54359767Y-41517696D01*
X54359768Y-41517697D01*
X54359770Y-41517700D01*
X54359772Y-41517704D01*
X54507567Y-41734479D01*
X54686014Y-41926801D01*
X54686018Y-41926804D01*
X54686019Y-41926805D01*
X54891143Y-42090386D01*
X55118357Y-42221568D01*
X55362584Y-42317420D01*
X55618370Y-42375802D01*
X55618376Y-42375802D01*
X55618379Y-42375803D01*
X55814500Y-42390500D01*
X55814506Y-42390500D01*
X55945500Y-42390500D01*
X56141620Y-42375803D01*
X56141622Y-42375802D01*
X56141630Y-42375802D01*
X56397416Y-42317420D01*
X56641643Y-42221568D01*
X56868857Y-42090386D01*
X57073981Y-41926805D01*
X57252433Y-41734479D01*
X57400228Y-41517704D01*
X57514063Y-41281323D01*
X57591396Y-41030615D01*
X57630499Y-40771187D01*
X89689500Y-40771187D01*
X89709794Y-40905823D01*
X89728604Y-41030615D01*
X89728605Y-41030617D01*
X89728606Y-41030623D01*
X89805938Y-41281326D01*
X89919767Y-41517696D01*
X89919768Y-41517697D01*
X89919770Y-41517700D01*
X89919772Y-41517704D01*
X90067567Y-41734479D01*
X90246014Y-41926801D01*
X90246018Y-41926804D01*
X90246019Y-41926805D01*
X90451143Y-42090386D01*
X90678357Y-42221568D01*
X90922584Y-42317420D01*
X91178370Y-42375802D01*
X91178376Y-42375802D01*
X91178379Y-42375803D01*
X91374500Y-42390500D01*
X91374506Y-42390500D01*
X91505500Y-42390500D01*
X91701620Y-42375803D01*
X91701622Y-42375802D01*
X91701630Y-42375802D01*
X91957416Y-42317420D01*
X92201643Y-42221568D01*
X92428857Y-42090386D01*
X92633981Y-41926805D01*
X92812433Y-41734479D01*
X92960228Y-41517704D01*
X93074063Y-41281323D01*
X93151396Y-41030615D01*
X93190500Y-40771182D01*
X93190500Y-40508818D01*
X93151396Y-40249385D01*
X93074063Y-39998677D01*
X93062121Y-39973880D01*
X92960232Y-39762303D01*
X92960231Y-39762302D01*
X92960230Y-39762301D01*
X92960228Y-39762296D01*
X92812433Y-39545521D01*
X92802441Y-39534753D01*
X92633985Y-39353198D01*
X92594533Y-39321736D01*
X92428857Y-39189614D01*
X92201643Y-39058432D01*
X91957416Y-38962580D01*
X91957411Y-38962578D01*
X91957402Y-38962576D01*
X91739818Y-38912914D01*
X91701630Y-38904198D01*
X91701629Y-38904197D01*
X91701625Y-38904197D01*
X91701620Y-38904196D01*
X91505500Y-38889500D01*
X91505494Y-38889500D01*
X91374506Y-38889500D01*
X91374500Y-38889500D01*
X91178379Y-38904196D01*
X91178374Y-38904197D01*
X90922597Y-38962576D01*
X90922578Y-38962582D01*
X90678356Y-39058432D01*
X90451143Y-39189614D01*
X90246014Y-39353198D01*
X90067567Y-39545520D01*
X89919768Y-39762302D01*
X89919767Y-39762303D01*
X89805938Y-39998673D01*
X89728606Y-40249376D01*
X89728605Y-40249381D01*
X89728604Y-40249385D01*
X89713853Y-40347247D01*
X89689500Y-40508812D01*
X89689500Y-40771187D01*
X57630499Y-40771187D01*
X57630500Y-40771182D01*
X57630500Y-40508818D01*
X57591396Y-40249385D01*
X57514063Y-39998677D01*
X57502121Y-39973880D01*
X57400232Y-39762303D01*
X57400231Y-39762302D01*
X57400230Y-39762301D01*
X57400228Y-39762296D01*
X57252433Y-39545521D01*
X57242441Y-39534753D01*
X57073985Y-39353198D01*
X57034533Y-39321736D01*
X56868857Y-39189614D01*
X56641643Y-39058432D01*
X56397416Y-38962580D01*
X56397411Y-38962578D01*
X56397402Y-38962576D01*
X56179818Y-38912914D01*
X56141630Y-38904198D01*
X56141629Y-38904197D01*
X56141625Y-38904197D01*
X56141620Y-38904196D01*
X55945500Y-38889500D01*
X55945494Y-38889500D01*
X55814506Y-38889500D01*
X55814500Y-38889500D01*
X55618379Y-38904196D01*
X55618374Y-38904197D01*
X55362597Y-38962576D01*
X55362578Y-38962582D01*
X55118356Y-39058432D01*
X54891143Y-39189614D01*
X54686014Y-39353198D01*
X54507567Y-39545520D01*
X54359768Y-39762302D01*
X54359767Y-39762303D01*
X54245938Y-39998673D01*
X54168606Y-40249376D01*
X54168605Y-40249381D01*
X54168604Y-40249385D01*
X54153853Y-40347247D01*
X54129500Y-40508812D01*
X54129500Y-40771187D01*
X50800500Y-40771187D01*
X50800500Y-35684500D01*
X50820185Y-35617461D01*
X50872989Y-35571706D01*
X50924500Y-35560500D01*
X96395500Y-35560500D01*
X96462539Y-35580185D01*
G37*
%TD.AperFunction*%
%TD*%
M02*
